<?xml version="1.0" encoding="utf-8"?>
<svg xmlns="http://www.w3.org/2000/svg" viewBox="0 0 500 500" xmlns:bx="https://boxy-svg.com" width="500px" height="500px"><defs><mask id="mask-0"><rect x="-147.61" y="67.091" width="767.477" height="198.202" style="fill: rgb(216, 216, 216); stroke: rgb(0, 0, 0);"/></mask><mask id="mask-1"><rect x="-160.88" y="267.826" width="793.331" height="198.202" style="fill: rgb(216, 216, 216); stroke: rgb(0, 0, 0);"/></mask><mask id="mask-2"><rect x="-160.88" y="267.826" width="793.331" height="198.202" style="fill: rgb(216, 216, 216); stroke: rgb(0, 0, 0);"/></mask><mask id="mask-5"><rect x="-147.61" y="67.091" width="767.477" height="198.202" style="fill: rgb(216, 216, 216); stroke: rgb(0, 0, 0);"/></mask></defs><rect width="525.329" height="525.329" style="stroke: rgb(0, 0, 0); fill: rgb(77, 225, 133); stroke-width: 0px; pointer-events: none;" y="-8.232" x="-11.398" id="object-0"><title>BG</title></rect><g><path d="M 246.58 267.192 L 295.022 398.904 L 198.138 398.904 L 246.58 267.192 Z" style="fill: rgba(216, 216, 216, 0); stroke-width: 40px;" transform="matrix(0.86602497, 0.5, -0.5, 0.86602497, 165.04871746, -30.48515401)"><title>Triangle outline</title></path><path d="M 323.688 418.904 L 169.473 418.904 L 246.581 209.251 Z M 226.804 378.904 L 266.357 378.904 L 246.581 325.133 Z" style="fill: rgb(77, 225, 133);" transform="matrix(0.8660249710083008, 0.5, -0.5, 0.8660249710083008, 165.04872131347656, -30.485153198242188)"/><path d="M 285.207 267.192 A 38.627 38.627 0 0 1 246.58 305.819 A 38.627 38.627 0 0 1 207.953 267.192 A 38.627 38.627 0 0 1 246.58 228.565 A 38.627 38.627 0 0 1 285.207 267.192 Z" style="stroke-dashoffset: 36px; stroke-width: 39px;" transform="matrix(0.86602497, 0.5, -0.5, 0.86602497, 165.0439437, -30.49066668)"/><path d="M 304.707 267.192 C 304.707 281.168 297.564 298.412 287.682 308.294 C 277.8 318.176 260.556 325.319 246.58 325.319 C 232.604 325.319 215.36 318.176 205.478 308.294 C 195.596 298.412 189.195 281.168 188.453 267.192 C 189.304 252.541 196.031 235.537 205.478 226.09 C 214.925 216.643 231.929 209.065 246.58 209.065 C 261.231 209.065 278.235 216.643 287.682 226.09 C 297.129 235.537 304.707 252.541 304.707 267.192 Z M 260.105 253.667 C 255.572 249.134 253.263 248.065 246.58 248.065 C 239.898 248.065 237.588 249.134 233.055 253.667 C 228.522 258.2 226.602 260.509 227.453 267.192 C 226.711 273.705 228.45 276.111 233.055 280.717 C 237.661 285.323 240.066 286.319 246.58 286.319 C 253.093 286.319 255.499 285.322 260.105 280.717 C 264.711 276.111 265.707 273.706 265.707 267.192 C 265.707 260.51 264.638 258.2 260.105 253.667 Z" style="fill: rgb(77, 225, 133);" transform="matrix(0.8660249710083008, 0.5, -0.5, 0.8660249710083008, 165.0439453125, -30.49066734313965)"/><path d="M 246.58 267.192 L 295.022 398.904 L 198.138 398.904 L 246.58 267.192 Z" style="fill: rgba(216, 216, 216, 0); stroke-width: 20px;" transform="matrix(0.86602497, 0.5, -0.5, 0.86602497, 165.04871746, -30.48515401)"/><path d="M 309.355 408.904 L 183.805 408.904 L 246.58 238.222 Z M 212.471 388.904 L 280.689 388.904 L 246.58 296.162 Z" style="" transform="matrix(0.8660249710083008, 0.5, -0.5, 0.8660249710083008, 165.04872131347656, -30.485153198242188)"/><path d="M 285.207 267.192 A 38.627 38.627 0 0 1 246.58 305.819 A 38.627 38.627 0 0 1 207.953 267.192 A 38.627 38.627 0 0 1 246.58 228.565 A 38.627 38.627 0 0 1 285.207 267.192 Z" style="stroke: rgb(76, 202, 124); stroke-dashoffset: 36px; stroke-width: 0px;" transform="matrix(0.866025, 0.5, -0.5, 0.866025, 165.043944, -30.490667)"/><path d="M 559.08 267.192 A 312.5 132.979 0 0 1 246.58 400.171 A 312.5 132.979 0 0 1 -65.92 267.192 A 312.5 132.979 0 0 1 246.58 134.213 A 312.5 132.979 0 0 1 559.08 267.192 Z" style="fill: rgba(216, 216, 216, 0); stroke-width: 78px;" transform="matrix(0.86602497, 0.5, -0.5, 0.86602497, 165.67733663, -19.72553378)"><title>Dish fat outline</title></path><path d="M 598.08 267.192 C 598.08 280.484 594.03 297.68 588.319 309.838 C 582.818 321.549 573.063 335.191 563.238 345.284 C 544.605 364.426 515.131 383.36 482.821 397.109 C 420.163 423.772 332.845 439.172 246.579 439.172 C 156.635 439.172 70.7 422.796 10.337 397.109 C -20.746 383.882 -50.09 365.497 -69.024 346.448 C -78.963 336.449 -88.996 322.797 -94.72 310.895 C -100.636 298.592 -104.366 280.994 -104.922 267.193 C -104.367 253.392 -100.637 235.794 -94.72 223.491 C -88.996 211.589 -78.963 197.937 -69.024 187.938 C -50.09 168.889 -20.746 150.503 10.337 137.277 C 70.7 111.591 156.635 95.214 246.579 95.214 C 336.523 95.214 422.458 111.59 482.821 137.277 C 513.904 150.504 543.248 168.889 562.182 187.938 C 572.121 197.937 582.154 211.589 587.878 223.491 C 593.794 235.794 598.08 253.392 598.08 267.193 Z M 517.584 257.294 C 514.982 251.883 512.736 248.835 506.862 242.924 C 494.169 230.154 477.749 219.885 452.28 209.048 C 399.54 186.606 329.225 173.213 246.58 173.213 C 163.935 173.213 93.62 186.605 40.88 209.048 C 15.411 219.886 -1.009 230.155 -13.701 242.924 C -19.575 248.834 -21.821 251.883 -24.423 257.294 C -26.832 262.304 -27.475 262.633 -26.919 267.192 C -27.474 271.752 -26.832 272.08 -24.423 277.09 C -21.821 282.501 -19.575 285.549 -13.701 291.46 C -1.008 304.23 15.412 314.499 40.88 325.336 C 93.62 347.778 163.935 361.171 246.58 361.171 C 326.075 361.171 397.728 348.55 452.28 325.336 C 478.575 314.147 494.865 303.699 507.346 290.878 C 513.078 284.989 515.217 282.004 517.721 276.674 C 520.015 271.791 520.08 271.533 520.08 267.192 C 520.08 262.632 519.993 262.304 517.584 257.294 Z" style="fill: rgb(77, 225, 133);" transform="matrix(0.8660249710083008, 0.5, -0.5, 0.8660249710083008, 165.67733764648438, -19.725534439086914)"/><path d="M 569.607 267.192 A 323.027 132.979 0 0 1 246.58 400.171 A 323.027 132.979 0 0 1 -76.447 267.192 A 323.027 132.979 0 0 1 246.58 134.213 A 323.027 132.979 0 0 1 569.607 267.192 Z" style="fill: rgba(216, 216, 216, 0); stroke-width: 45px; mask: url(&quot;#mask-1&quot;);" transform="matrix(0.86602497, 0.5, -0.5, 0.86602497, 167.43348563, -14.96927004)"><title>Dish fat</title></path><path d="M 569.607 267.192 A 323.027 132.979 0 0 1 246.58 400.171 A 323.027 132.979 0 0 1 -76.447 267.192 A 323.027 132.979 0 0 1 246.58 134.213 A 323.027 132.979 0 0 1 569.607 267.192 Z" style="fill: rgba(216, 216, 216, 0); stroke-width: 45px; mask: url(&quot;#mask-2&quot;);" transform="matrix(0.86602497, 0.5, -0.5, 0.86602497, 167.43348563, -14.96927004)"><title>Dish fat</title></path><path d="M 559.08 267.192 A 312.5 132.979 0 0 1 246.58 400.171 A 312.5 132.979 0 0 1 -65.92 267.192 A 312.5 132.979 0 0 1 246.58 134.213 A 312.5 132.979 0 0 1 559.08 267.192 Z" style="fill: rgba(216, 216, 216, 0); mask: url(&quot;#mask-5&quot;); stroke-width: 50px;" transform="matrix(0.86602497, 0.5, -0.5, 0.86602497, 165.67727762, -18.45916872)"><title>Dish thin outline</title></path><path d="M 592.107 267.192 C 592.107 279.123 588.56 293.208 583.192 304.007 C 577.95 314.552 569.285 325.957 559.915 335.077 C 541.753 352.754 514.385 369.339 483.56 382.028 C 422.953 406.978 337.821 422.671 246.58 422.671 C 155.339 422.671 70.208 406.978 9.6 382.028 C -21.225 369.338 -48.593 352.754 -66.755 335.077 C -76.125 325.957 -84.791 314.552 -90.032 304.007 C -95.4 293.208 -98.605 279.122 -98.947 267.192 C -98.606 255.261 -95.4 241.176 -90.032 230.377 C -84.79 219.832 -76.125 208.427 -66.755 199.307 C -48.593 181.63 -21.225 165.045 9.6 152.356 C 70.207 127.406 155.339 111.713 246.58 111.713 C 337.821 111.713 422.952 127.406 483.56 152.356 C 514.385 165.046 541.753 181.63 559.915 199.307 C 569.285 208.427 577.951 219.832 583.192 230.377 C 588.56 241.176 592.107 255.262 592.107 267.192 Z M 542.896 250.407 C 539.532 243.639 535.505 238.344 528.529 231.554 C 513.999 217.412 494.061 205.342 466.43 193.967 C 410.124 170.788 333.743 156.712 246.581 156.712 C 159.419 156.712 83.037 170.788 26.732 193.967 C -0.899 205.342 -20.838 217.412 -35.367 231.554 C -42.343 238.343 -46.37 243.639 -49.734 250.407 C -52.972 256.921 -54.286 260.762 -53.945 267.192 C -54.286 273.622 -52.972 277.463 -49.734 283.977 C -46.37 290.745 -42.343 296.04 -35.367 302.83 C -20.837 316.972 -0.899 329.042 26.732 340.417 C 83.038 363.596 159.419 377.672 246.581 377.672 C 333.743 377.672 410.125 363.596 466.43 340.417 C 494.061 329.042 514 316.972 528.529 302.83 C 535.505 296.041 539.532 290.745 542.896 283.977 C 546.134 277.463 547.107 273.622 547.107 267.192 C 547.107 260.762 546.134 256.921 542.896 250.407 Z" style="visibility: hidden;" transform="matrix(0.8660249710083008, 0.5, -0.5, 0.8660249710083008, 167.43348693847656, -14.969269752502441)"/><path d="M 592.107 267.192 C 592.107 279.123 588.56 293.208 583.192 304.007 C 577.95 314.552 569.285 325.957 559.915 335.077 C 541.753 352.754 514.385 369.339 483.56 382.028 C 422.953 406.978 337.821 422.671 246.58 422.671 C 155.339 422.671 70.208 406.978 9.6 382.028 C -21.225 369.338 -48.593 352.754 -66.755 335.077 C -76.125 325.957 -84.791 314.552 -90.032 304.007 C -95.4 293.208 -98.605 279.122 -98.947 267.192 C -98.606 255.261 -95.4 241.176 -90.032 230.377 C -84.79 219.832 -76.125 208.427 -66.755 199.307 C -48.593 181.63 -21.225 165.045 9.6 152.356 C 70.207 127.406 155.339 111.713 246.58 111.713 C 337.821 111.713 422.952 127.406 483.56 152.356 C 514.385 165.046 541.753 181.63 559.915 199.307 C 569.285 208.427 577.951 219.832 583.192 230.377 C 588.56 241.176 592.107 255.262 592.107 267.192 Z M 542.896 250.407 C 539.532 243.639 535.505 238.344 528.529 231.554 C 513.999 217.412 494.061 205.342 466.43 193.967 C 410.124 170.788 333.743 156.712 246.581 156.712 C 159.419 156.712 83.037 170.788 26.732 193.967 C -0.899 205.342 -20.838 217.412 -35.367 231.554 C -42.343 238.343 -46.37 243.639 -49.734 250.407 C -52.972 256.921 -54.286 260.762 -53.945 267.192 C -54.286 273.622 -52.972 277.463 -49.734 283.977 C -46.37 290.745 -42.343 296.04 -35.367 302.83 C -20.837 316.972 -0.899 329.042 26.732 340.417 C 83.038 363.596 159.419 377.672 246.581 377.672 C 333.743 377.672 410.125 363.596 466.43 340.417 C 494.061 329.042 514 316.972 528.529 302.83 C 535.505 296.041 539.532 290.745 542.896 283.977 C 546.134 277.463 547.107 273.622 547.107 267.192 C 547.107 260.762 546.134 256.921 542.896 250.407 Z" style="visibility: hidden;" transform="matrix(0.8660249710083008, 0.5, -0.5, 0.8660249710083008, 167.43348693847656, -14.969269752502441)"/><path d="M 584.08 267.192 C 584.08 278.878 580.745 293.033 575.648 303.885 C 570.685 314.451 562.297 326.18 553.207 335.518 C 535.678 353.526 508.571 370.936 477.34 384.226 C 416.137 410.27 331.63 425.171 246.58 425.171 C 157.946 425.171 74.815 409.33 15.82 384.226 C -14.255 371.428 -41.28 354.499 -59.094 336.577 C -68.303 327.312 -76.939 315.563 -82.102 304.826 C -87.389 293.832 -90.565 279.334 -90.921 267.192 C -90.565 255.05 -87.389 240.552 -82.102 229.558 C -76.939 218.821 -68.303 207.072 -59.094 197.807 C -41.28 179.885 -14.256 162.956 15.82 150.158 C 74.815 125.054 157.946 109.213 246.58 109.213 C 335.214 109.213 418.345 125.054 477.34 150.158 C 507.415 162.956 534.44 179.885 552.254 197.807 C 561.463 207.072 570.099 218.821 575.262 229.558 C 580.549 240.552 584.081 255.05 584.081 267.192 Z M 530.201 251.226 C 527.039 244.65 523.395 239.698 516.791 233.054 C 502.978 219.157 484.238 207.431 457.762 196.165 C 403.654 173.14 330.535 159.212 246.58 159.212 C 162.625 159.212 89.506 173.14 35.398 196.164 C 8.922 207.431 -9.818 219.156 -23.631 233.053 C -30.235 239.697 -33.878 244.649 -37.041 251.225 C -40.08 257.544 -41.276 260.972 -40.92 267.191 C -41.276 273.409 -40.08 276.837 -37.041 283.157 C -33.879 289.733 -30.235 294.685 -23.631 301.329 C -9.818 315.226 8.922 326.952 35.398 338.218 C 89.506 361.243 162.625 375.171 246.58 375.171 C 327.29 375.171 401.755 362.051 457.762 338.219 C 485.137 326.57 503.793 314.599 517.378 300.644 C 523.845 294 527.351 289.103 530.392 282.628 C 533.299 276.44 534.08 273.141 534.08 267.193 C 534.08 260.975 533.24 257.547 530.201 251.227 Z" style="fill: rgb(77, 225, 133);" transform="matrix(0.8660249710083008, 0.5, -0.5, 0.8660249710083008, 165.67727661132812, -18.459169387817383)"/><path d="M 559.08 267.192 A 312.5 132.979 0 0 1 246.58 400.171 A 312.5 132.979 0 0 1 -65.92 267.192 A 312.5 132.979 0 0 1 246.58 134.213 A 312.5 132.979 0 0 1 559.08 267.192 Z" style="fill: rgba(216, 216, 216, 0); stroke-width: 25px; mask: url(&quot;#mask-0&quot;);" transform="matrix(0.86602497, 0.5, -0.5, 0.86602497, 165.67733663, -19.72553378)"><title>Dish thin</title></path><path d="M 571.58 267.192 C 571.58 287.515 561.207 309.378 544.25 326.8 C 527.707 343.795 502.712 359.845 472.446 372.725 C 412.542 398.216 330.546 412.672 246.581 412.672 C 159.117 412.672 78.489 397.31 20.716 372.725 C -8.459 360.31 -33.413 344.682 -50.226 327.766 C -67.42 310.467 -77.759 288.348 -78.418 267.193 C -77.758 246.038 -67.42 223.918 -50.226 206.62 C -33.412 189.704 -8.459 174.076 20.716 161.661 C 78.489 137.077 159.117 121.714 246.581 121.714 C 334.045 121.714 414.673 137.076 472.446 161.661 C 501.621 174.076 526.575 189.704 543.388 206.62 C 560.582 223.919 571.58 246.038 571.58 267.193 Z M 525.657 224.243 C 510.844 209.34 490.033 196.313 462.657 184.664 C 407.327 161.119 331.705 146.713 246.581 146.713 C 161.456 146.713 85.834 161.119 30.505 184.664 C 3.129 196.313 -17.682 209.34 -32.495 224.243 C -46.927 238.763 -54.078 251.627 -53.418 267.192 C -54.078 282.758 -46.927 295.621 -32.495 310.141 C -17.682 325.044 3.129 338.071 30.505 349.72 C 85.835 373.265 161.457 387.671 246.581 387.671 C 328.376 387.671 405.351 374.106 462.657 349.72 C 490.996 337.661 511.765 324.33 526.336 309.362 C 540.491 294.82 546.581 282.138 546.581 267.192 C 546.581 251.626 540.09 238.763 525.658 224.243 Z" style="" transform="matrix(0.8660249710083008, 0.5, -0.5, 0.8660249710083008, 165.67733764648438, -19.725534439086914)"/><ellipse style="fill: rgba(216, 216, 216, 0); stroke-width: 33px; stroke: rgb(77, 225, 133);" cx="386.812" cy="-22.513" rx="465.635" ry="342.455" transform="matrix(0.866025, 0.5, -0.5, 0.866025, -34.854616, 10.500962)"/><ellipse style="stroke: rgb(0, 0, 0); fill: rgba(216, 216, 216, 0); stroke-width: 33px;" cx="386.812" cy="-22.513" rx="465.635" ry="342.455" transform="matrix(0.866025, 0.5, -0.5, 0.866025, -23.852029, -11.499282)"/></g></svg>